HIERARCHY
ROOT Hips
{
	OFFSET 0.000000 8.830580 0.000000
	CHANNELS 6 Xposition Yposition Zposition Zrotation Yrotation Xrotation 
	JOINT Spine
	{
		OFFSET 0.000000 0.010000 0.000000
		CHANNELS 3 Zrotation Yrotation Xrotation
		JOINT Spine1
		{
			OFFSET 0.000000 2.459130 0.000000
			CHANNELS 3 Zrotation Yrotation Xrotation
			JOINT Neck
			{
				OFFSET 0.000000 2.484630 0.000000
				CHANNELS 3 Zrotation Yrotation Xrotation
				JOINT Head_virtual
				{
					OFFSET 0.000000 0.000000 0.000000
					CHANNELS 3 Zrotation Yrotation Xrotation
					JOINT Head
					{
						OFFSET 0.000000 0.927525 0.000000
						CHANNELS 3 Zrotation Yrotation Xrotation
						End Site
						{
							OFFSET 0.000000 0.000000 0.000000
						}
					}
				}
				JOINT LeftUpArm_virtual
				{
					OFFSET 0.000000 0.000000 0.000000
					CHANNELS 3 Zrotation Yrotation Xrotation
					JOINT LeftUpArm
					{
						OFFSET 1.248820 0.000000 0.000000
						CHANNELS 3 Zrotation Yrotation Xrotation
						JOINT LeftForeArm
						{
							OFFSET 2.597580 0.000000 0.000000
							CHANNELS 3 Zrotation Yrotation Xrotation
							JOINT LeftHand
							{
								OFFSET 2.455420 0.000000 0.000000
								CHANNELS 3 Zrotation Yrotation Xrotation
								End Site
								{
									OFFSET 0.000000 0.000000 0.000000
								}
							}
						}
					}
				}
				JOINT RightUpArm_virtual
				{
					OFFSET -0.000000 -0.000000 -0.000000
					CHANNELS 3 Zrotation Yrotation Xrotation
					JOINT RightUpArm
					{
						OFFSET -1.248820 -0.000000 -0.000000
						CHANNELS 3 Zrotation Yrotation Xrotation
						JOINT RightForeArm
						{
							OFFSET -2.597580 -0.000000 -0.000000
							CHANNELS 3 Zrotation Yrotation Xrotation
							JOINT RightHand
							{
								OFFSET -2.455420 -0.000000 -0.000000
								CHANNELS 3 Zrotation Yrotation Xrotation
								End Site
								{
									OFFSET 0.000000 0.000000 0.000000
								}
							}
						}
					}
				}
			}
		}
	}
	JOINT LeftUpLeg
	{
		OFFSET 1.271939 0.000000 0.000000
		CHANNELS 3 Zrotation Yrotation Xrotation
		JOINT LeftLowLeg
		{
			OFFSET 0.000000 -4.342910 0.000000
			CHANNELS 3 Zrotation Yrotation Xrotation
			JOINT LeftFoot
			{
				OFFSET 0.000000 -4.487670 0.000000
				CHANNELS 3 Zrotation Yrotation Xrotation
				JOINT LeftToeBase
				{
					OFFSET 0.000000 0.000000 1.515070
					CHANNELS 3 Zrotation Yrotation Xrotation
					End Site
					{
						OFFSET 0.000000 0.000000 0.000000
					}
				}
			}
		}
	}
	JOINT RightUpLeg
	{
		OFFSET -1.271939 0.000000 0.000000
		CHANNELS 3 Zrotation Yrotation Xrotation
		JOINT RightLowLeg
		{
			OFFSET 0.000000 -4.342910 0.000000
			CHANNELS 3 Zrotation Yrotation Xrotation
			JOINT RightFoot
			{
				OFFSET 0.000000 -4.487670 0.000000
				CHANNELS 3 Zrotation Yrotation Xrotation
				JOINT RightToeBase
				{
					OFFSET 0.000000 0.000000 1.515070
					CHANNELS 3 Zrotation Yrotation Xrotation
					End Site
					{
						OFFSET 0.000000 0.000000 0.000000
					}
				}
			}
		}
	}
}
MOTION
Frames: 5
Frame Time: 0.041667
-20.101726 8.604767 47.673753 -133.505607 -81.028645 145.327736 10.164189 -4.226713 1.448891 16.682237 -5.697543 14.582424 0.000000 0.000000 0.000000 -12.706608 -8.969488 -29.871735 3.130690 3.495940 -56.739206 -23.085300 -0.966550 3.384450 -52.758598 -32.672501 56.939400 0.000000 -81.092499 0.000000 32.443001 12.602400 21.156700 20.134800 1.561110 6.221050 36.180801 24.710899 -5.869970 0.000000 50.237801 0.000000 -7.520690 -25.090000 -71.887100 17.941103 -4.512535 -32.797877 0.000000 0.000000 44.187500 -14.992691 -1.945804 -6.199088 0.000000 0.000000 -39.978901 -14.604510 1.293202 -17.383269 0.000000 0.000000 15.049000 25.715888 -12.383132 8.441286 0.000000 0.000000 -24.841810 
-20.113886 8.553969 47.859132 -129.114500 -81.521561 140.409442 9.613661 -3.799833 1.610381 16.741432 -5.386708 15.069919 0.000000 0.000000 0.000000 -12.065289 -9.248000 -29.611955 3.512193 3.265781 -57.455114 -23.189800 -1.287630 3.505660 -52.609299 -33.641399 57.340801 0.000000 -81.216797 0.000000 32.065300 13.046600 21.395300 20.178499 1.319070 6.752450 35.831402 24.277901 -6.452140 0.000000 51.646801 0.000000 -7.260260 -26.254499 -74.028000 16.669597 -3.170822 -33.842093 0.000000 0.000000 46.374001 -14.387541 -4.249677 -6.487013 0.000000 0.000000 -40.066299 -15.544688 1.902953 -16.495258 0.000000 0.000000 14.914700 25.632488 -14.232777 8.216417 0.000000 0.000000 -24.472660 
-20.126750 8.511107 48.039669 -124.922356 -81.825481 135.730829 9.240037 -3.250840 1.640481 16.606269 -4.989849 15.754349 0.000000 0.000000 0.000000 -11.522513 -9.457972 -29.618748 3.866019 2.931395 -57.425658 -23.417900 -1.736070 3.332560 -52.145199 -34.310799 57.723900 0.000000 -81.458199 0.000000 31.785400 13.024700 22.282400 20.481100 0.988130 7.088660 35.410198 24.105400 -7.231890 0.000000 52.517601 0.000000 -6.404610 -26.486000 -76.678703 15.405040 -2.098802 -33.958380 0.000000 0.000000 46.944599 -13.801255 -5.961237 -7.509440 0.000000 0.000000 -40.244600 -16.122925 1.614839 -15.745516 0.000000 0.000000 14.730600 24.145942 -15.848507 8.905260 0.000000 0.000000 -24.535460 
-20.142080 8.478252 48.213184 -121.442563 -81.682820 131.728167 9.454566 -2.580947 1.800257 15.926649 -4.449734 16.348553 0.000000 0.000000 0.000000 -11.305631 -9.475989 -29.949327 4.432457 2.495214 -56.394561 -23.394300 -2.162120 3.389640 -51.535801 -34.767700 57.637299 0.000000 -81.628601 0.000000 31.319300 12.968100 22.523800 21.131800 0.472062 7.173880 35.094700 24.183399 -7.491530 0.000000 52.945801 0.000000 -5.481160 -26.768200 -79.790604 14.595526 -1.843890 -34.060154 0.000000 0.000000 47.990002 -13.409225 -6.618921 -8.645663 0.000000 0.000000 -40.341200 -16.243059 1.381993 -15.239441 0.000000 0.000000 14.717500 21.504024 -17.848906 10.186184 0.000000 0.000000 -24.802710 
-20.156226 8.460641 48.366006 -117.766615 -81.383023 127.705538 9.603113 -2.155080 2.058647 15.534596 -4.048345 16.419224 0.000000 0.000000 0.000000 -11.527860 -9.602677 -29.668996 4.978109 2.299916 -55.487767 -23.186899 -2.039990 3.509470 -51.393002 -35.050201 57.694000 0.000000 -81.316803 0.000000 30.982599 13.185300 21.021099 21.290701 0.332728 7.048320 35.721401 24.033199 -7.040430 0.000000 53.069099 0.000000 -6.339030 -26.563499 -77.360397 14.081472 -1.647703 -34.649573 0.000000 0.000000 49.641399 -12.521273 -6.849258 -9.072992 0.000000 0.000000 -40.314501 -15.978505 1.506936 -15.208287 0.000000 0.000000 15.367000 18.853178 -20.630897 11.360093 0.000000 0.000000 -25.077500 
